<?xml version="1.0" encoding="UTF-8"?>
<svg xmlns="http://www.w3.org/2000/svg" xmlns:xlink="http://www.w3.org/1999/xlink" viewBox="0 0 22 22" width="22px" height="22px">
<g id="surface224012296">
<path style=" stroke:none;fill-rule:nonzero;fill:rgb(100%,100%,100%);fill-opacity:1;" d="M 10 0.800781 C 4.925781 0.800781 0.800781 4.925781 0.800781 10 C 0.800781 11.585938 1.210938 13.140625 1.984375 14.515625 L 0.816406 18.691406 C 0.777344 18.828125 0.8125 18.976562 0.914062 19.078125 C 0.988281 19.15625 1.09375 19.199219 1.199219 19.199219 C 1.230469 19.199219 1.265625 19.195312 1.296875 19.1875 L 5.65625 18.109375 C 6.984375 18.824219 8.484375 19.199219 10 19.199219 C 15.074219 19.199219 19.199219 15.074219 19.199219 10 C 19.199219 4.925781 15.074219 0.800781 10 0.800781 Z M 14.628906 13.246094 C 14.429688 13.792969 13.488281 14.289062 13.035156 14.355469 C 12.625 14.414062 12.109375 14.441406 11.546875 14.261719 C 11.203125 14.15625 10.761719 14.011719 10.199219 13.769531 C 7.828125 12.761719 6.28125 10.40625 6.164062 10.25 C 6.046875 10.09375 5.199219 8.984375 5.199219 7.835938 C 5.199219 6.691406 5.808594 6.125 6.027344 5.890625 C 6.242188 5.660156 6.5 5.601562 6.65625 5.601562 C 6.8125 5.601562 6.972656 5.601562 7.109375 5.609375 C 7.253906 5.617188 7.449219 5.554688 7.640625 6.007812 C 7.839844 6.476562 8.308594 7.625 8.367188 7.742188 C 8.429688 7.859375 8.46875 7.992188 8.390625 8.148438 C 8.308594 8.304688 8.269531 8.402344 8.152344 8.539062 C 8.035156 8.675781 7.90625 8.84375 7.796875 8.949219 C 7.679688 9.0625 7.558594 9.191406 7.695312 9.421875 C 7.832031 9.65625 8.304688 10.421875 9.007812 11.039062 C 9.910156 11.832031 10.671875 12.078125 10.90625 12.195312 C 11.144531 12.3125 11.28125 12.292969 11.417969 12.136719 C 11.558594 11.980469 12.011719 11.457031 12.167969 11.222656 C 12.324219 10.992188 12.480469 11.027344 12.699219 11.105469 C 12.914062 11.183594 14.078125 11.75 14.3125 11.867188 C 14.546875 11.980469 14.707031 12.039062 14.765625 12.136719 C 14.824219 12.234375 14.824219 12.703125 14.628906 13.246094 Z M 14.628906 13.246094 "/>
</g>
</svg>
