<?xml version="1.0" encoding="UTF-8"?>
<svg xmlns="http://www.w3.org/2000/svg" xmlns:xlink="http://www.w3.org/1999/xlink" viewBox="0 0 20 20" width="20px" height="20px">
<g id="surface224480969">
<path style=" stroke:none;fill-rule:nonzero;fill:rgb(100%,100%,100%);fill-opacity:1;" d="M 7.117188 18.734375 C 7.402344 18.613281 7.601562 18.328125 7.601562 18 L 7.601562 15.839844 C 7.601562 15.761719 7.605469 15.679688 7.617188 15.597656 C 7.609375 15.597656 7.605469 15.597656 7.601562 15.601562 C 7.601562 15.601562 6.398438 15.601562 6.160156 15.601562 C 5.558594 15.601562 5.039062 15.359375 4.800781 14.878906 C 4.519531 14.359375 4.398438 13.480469 3.679688 13 C 3.558594 12.921875 3.640625 12.800781 3.878906 12.800781 C 4.121094 12.839844 4.640625 13.160156 4.960938 13.601562 C 5.320312 14.039062 5.679688 14.398438 6.320312 14.398438 C 7.316406 14.398438 7.847656 14.351562 8.167969 14.179688 C 8.542969 13.621094 9.058594 13.199219 9.601562 13.199219 L 9.601562 13.191406 C 7.332031 13.117188 5.882812 12.363281 5.210938 11.199219 C 3.742188 11.21875 2.46875 11.363281 1.738281 11.484375 C 1.714844 11.351562 1.695312 11.21875 1.679688 11.089844 C 2.398438 10.96875 3.617188 10.828125 5.015625 10.800781 C 4.972656 10.691406 4.933594 10.578125 4.902344 10.460938 C 3.496094 10.390625 2.285156 10.445312 1.625 10.5 C 1.617188 10.367188 1.605469 10.238281 1.605469 10.101562 C 2.265625 10.046875 3.445312 9.992188 4.8125 10.058594 C 4.78125 9.859375 4.761719 9.652344 4.761719 9.441406 C 4.761719 8.761719 5 8.039062 5.441406 7.441406 C 5.242188 6.761719 4.960938 5.320312 5.519531 4.800781 C 6.601562 4.800781 7.359375 5.320312 7.71875 5.640625 C 8.398438 5.359375 9.160156 5.199219 10 5.199219 C 10.839844 5.199219 11.601562 5.359375 12.238281 5.640625 C 12.601562 5.320312 13.359375 4.800781 14.441406 4.800781 C 15.039062 5.359375 14.71875 6.800781 14.519531 7.441406 C 14.960938 8.039062 15.199219 8.71875 15.160156 9.441406 C 15.160156 9.632812 15.140625 9.820312 15.117188 10.003906 C 16.515625 9.933594 17.726562 9.988281 18.398438 10.042969 C 18.398438 10.179688 18.382812 10.3125 18.378906 10.445312 C 17.707031 10.390625 16.46875 10.332031 15.035156 10.410156 C 14.996094 10.542969 14.953125 10.671875 14.902344 10.800781 C 16.320312 10.820312 17.570312 10.957031 18.324219 11.074219 C 18.304688 11.207031 18.285156 11.339844 18.261719 11.472656 C 17.496094 11.347656 16.195312 11.207031 14.710938 11.199219 C 14.042969 12.347656 12.621094 13.101562 10.398438 13.1875 L 10.398438 13.199219 C 11.441406 13.199219 12.398438 14.761719 12.398438 15.839844 L 12.398438 18 C 12.398438 18.328125 12.597656 18.613281 12.882812 18.734375 C 16.546875 17.523438 19.199219 14.066406 19.199219 10 C 19.199219 4.925781 15.074219 0.800781 10 0.800781 C 4.925781 0.800781 0.800781 4.925781 0.800781 10 C 0.800781 14.066406 3.453125 17.523438 7.117188 18.734375 Z M 7.117188 18.734375 "/>
</g>
</svg>
