<?xml version="1.0" standalone="no"?>
<!DOCTYPE svg PUBLIC "-//W3C//DTD SVG 20010904//EN"
 "http://www.w3.org/TR/2001/REC-SVG-20010904/DTD/svg10.dtd">
<svg version="1.0" xmlns="http://www.w3.org/2000/svg"
 width="500.000000pt" height="500.000000pt" viewBox="0 0 500.000000 500.000000"
 preserveAspectRatio="xMidYMid meet">

<g transform="translate(0.000000,500.000000) scale(0.100000,-0.100000)"
fill="#000000" stroke="none">
<path d="M2973 3420 c-239 -68 -371 -136 -345 -177 4 -6 48 -36 98 -67 158
-97 234 -200 274 -369 11 -46 20 -119 21 -167 0 -94 12 -174 22 -150 3 8 11
150 17 315 11 316 33 592 49 608 6 6 76 8 170 5 89 -3 161 -1 161 3 0 17 -45
23 -200 25 -156 3 -170 1 -267 -26z m84 -67 c-4 -27 -11 -124 -17 -218 -6 -93
-14 -199 -17 -234 l-5 -65 -18 52 c-46 130 -132 229 -275 315 -38 23 -69 46
-68 52 0 5 22 20 47 33 60 30 304 111 335 112 22 0 23 -2 18 -47z"/>
<path d="M1588 3305 c-53 -19 -120 -68 -161 -115 -71 -84 -137 -240 -137 -328
0 -55 21 -94 41 -75 9 9 8 15 -5 28 -19 19 -19 16 -5 91 17 95 124 294 158
294 4 0 4 -21 0 -47 -4 -27 -11 -123 -15 -215 l-7 -167 -44 -32 c-39 -28 -54
-32 -129 -37 -121 -7 -247 13 -424 69 -198 63 -325 89 -438 89 -107 0 -181
-13 -240 -41 -50 -25 -69 -50 -74 -99 -2 -27 1 -35 16 -38 16 -3 17 1 12 35
-9 49 15 74 99 104 48 17 84 21 175 21 125 1 151 -5 415 -85 183 -56 285 -74
479 -82 82 -3 153 -8 158 -11 4 -3 8 -29 8 -57 0 -63 24 -250 34 -266 4 -6 14
-11 22 -11 12 0 14 7 10 28 -22 103 -33 282 -17 282 5 0 84 -49 176 -110 153
-101 196 -123 194 -102 0 7 -288 199 -356 238 -29 16 -33 24 -33 59 0 37 6 47
61 100 73 72 140 163 174 237 21 47 30 56 64 66 21 7 40 12 43 12 3 0 8 -87
11 -192 6 -182 19 -313 32 -326 17 -17 23 19 14 78 -5 36 -12 153 -16 261 l-6
196 66 16 c36 10 82 17 102 17 35 0 48 16 21 26 -11 4 -112 -15 -166 -31 -11
-4 -15 3 -15 25 0 42 -18 41 -29 -2 -7 -29 -16 -39 -48 -51 l-38 -15 0 44 c0
59 -23 102 -65 120 -42 17 -68 17 -117 -1z m116 -36 c22 -17 26 -28 26 -72 0
-63 -4 -69 -57 -96 -46 -23 -58 -36 -48 -51 4 -6 19 0 37 15 17 14 33 23 36
20 14 -14 -94 -170 -163 -235 l-38 -35 7 144 c9 193 22 283 44 296 24 15 84
33 108 34 12 1 33 -8 48 -20z m-244 -559 c0 -5 -8 -10 -17 -10 -15 0 -16 2 -3
10 19 12 20 12 20 0z"/>
<path d="M3604 3269 c-4 -6 -12 -67 -18 -135 -11 -120 -12 -125 -44 -156 -26
-27 -35 -31 -50 -22 -9 6 -18 22 -20 35 -5 47 -12 69 -22 69 -5 0 -24 -25 -41
-55 -41 -73 -54 -80 -46 -24 4 24 9 56 13 72 10 44 -23 35 -37 -10 -8 -26 -28
-51 -64 -81 l-54 -43 -35 23 c-45 29 -50 44 -25 69 14 14 18 24 11 31 -14 14
-62 -34 -62 -61 0 -11 17 -34 40 -52 43 -35 48 -50 24 -70 -8 -7 -24 -30 -35
-50 -42 -83 -10 -143 50 -94 37 32 55 84 48 141 -4 43 -3 46 38 79 50 41 55
42 55 11 0 -13 6 -29 13 -35 18 -15 40 2 70 57 l24 42 16 -40 c13 -33 20 -40
43 -40 15 0 42 11 60 25 l33 25 3 -40 c4 -53 19 -54 38 -2 36 97 90 124 90 44
0 -36 -4 -42 -55 -77 -59 -40 -75 -60 -75 -94 0 -17 6 -21 31 -21 44 0 83 32
107 87 12 29 38 63 65 85 40 33 45 35 60 21 24 -25 71 -20 111 11 l36 27 0
-30 c0 -37 9 -62 21 -55 5 3 9 20 9 37 0 48 24 77 66 77 31 0 34 -2 34 -30 0
-37 23 -49 49 -26 10 9 40 61 67 114 l49 97 3 -108 3 -109 -68 -72 c-141 -149
-169 -286 -58 -286 71 0 125 97 147 262 8 64 17 97 28 105 63 45 121 96 116
100 -3 4 -32 -13 -65 -35 -33 -23 -62 -42 -65 -42 -3 0 -6 28 -7 63 -1 85 -12
150 -26 154 -7 3 -32 -35 -59 -89 -26 -51 -56 -104 -67 -118 l-20 -25 7 63 c8
68 -7 86 -27 32 -10 -26 -16 -30 -49 -30 -20 0 -40 -5 -44 -11 -9 -15 -24 9
-24 39 0 12 -4 22 -10 22 -5 0 -10 -15 -10 -34 0 -63 -96 -122 -130 -80 -11
13 -8 20 23 45 24 20 37 39 37 55 0 53 -75 13 -87 -47 -3 -18 -22 -44 -47 -65
l-41 -35 -6 35 c-14 86 -62 88 -122 6 -17 -24 -18 -23 -12 85 3 61 8 129 11
153 6 41 -6 57 -22 31z m306 -172 c0 -2 -10 -12 -21 -23 -22 -19 -22 -19 -10
4 10 18 31 31 31 19z m379 -217 c-21 -154 -65 -234 -123 -228 -28 3 -31 7 -34
41 -4 51 29 114 102 193 32 36 60 64 61 62 2 -2 -1 -32 -6 -68z m-614 -35
c-24 -32 -65 -48 -65 -26 0 15 84 83 88 71 2 -6 -8 -26 -23 -45z m-469 -40
c-7 -34 -40 -85 -57 -85 -24 0 2 80 39 123 20 23 26 9 18 -38z"/>
<path d="M383 3175 c-25 -37 -32 -61 -10 -30 8 10 18 16 23 13 5 -4 9 7 10 23
1 16 1 29 0 29 -1 0 -11 -16 -23 -35z"/>
<path d="M457 3125 c-9 -19 -15 -35 -12 -35 7 0 37 61 33 66 -3 2 -12 -12 -21
-31z"/>
<path d="M510 3110 c-6 -11 -8 -20 -6 -20 3 0 10 9 16 20 6 11 8 20 6 20 -3 0
-10 -9 -16 -20z"/>
<path d="M556 3071 c-9 -16 -16 -36 -16 -43 1 -7 10 4 21 25 11 22 18 41 15
44 -2 3 -12 -9 -20 -26z"/>
<path d="M637 3030 c-9 -25 -12 -42 -6 -46 6 -3 13 -3 16 0 4 3 1 6 -5 6 -7 0
-6 12 4 36 8 20 13 38 11 40 -2 2 -11 -14 -20 -36z"/>
<path d="M2283 2982 c-30 -35 -43 -40 -43 -18 0 7 -6 19 -13 25 -17 13 -34 -4
-65 -64 l-21 -40 -1 48 c0 60 -20 60 -35 0 -12 -47 -26 -66 -71 -94 -63 -38
-104 5 -45 48 33 25 45 58 26 73 -31 25 -85 -38 -85 -98 0 -35 27 -62 61 -62
14 0 44 14 66 30 37 28 43 29 51 14 15 -28 41 -9 68 51 26 57 44 77 44 50 0
-29 30 -29 61 1 l29 28 0 -76 c0 -59 4 -81 19 -99 16 -21 22 -22 45 -11 29 13
86 95 86 125 0 27 -15 13 -49 -48 -50 -88 -67 -75 -74 57 -4 87 -17 102 -54
60z m-302 -75 c-13 -12 -20 -15 -16 -7 14 26 28 41 33 35 3 -3 -5 -16 -17 -28z"/>
<path d="M793 2977 c10 -15 15 -33 11 -39 -4 -7 -3 -8 4 -4 18 11 14 31 -10
52 l-22 19 17 -28z"/>
<path d="M881 2993 c11 -3 14 -13 11 -36 -6 -41 3 -33 11 11 6 28 4 32 -16 31
-14 -1 -16 -3 -6 -6z"/>
<path d="M997 2973 c-4 -6 -3 -14 2 -17 4 -3 11 -20 15 -37 3 -18 8 -30 11
-27 3 2 -1 24 -8 49 -8 26 -16 39 -20 32z"/>
<path d="M1192 2960 c0 -30 15 -84 17 -57 1 20 12 22 31 5 8 -7 6 -3 -4 10
-19 22 -19 22 0 45 18 21 18 21 -8 -1 l-26 -24 -5 24 c-4 23 -4 23 -5 -2z"/>
<path d="M1080 2950 c-12 -22 2 -60 21 -60 6 0 3 7 -5 16 -19 18 -19 20 -6 45
6 10 8 19 6 19 -3 0 -10 -9 -16 -20z"/>
<path d="M972 2930 c-18 -29 -15 -38 4 -12 9 13 14 25 12 27 -2 2 -9 -5 -16
-15z"/>
<path d="M1746 2895 c-35 -73 -30 -175 9 -175 7 0 23 12 34 26 25 32 29 110 7
139 -8 11 -12 25 -9 32 12 30 -26 10 -41 -22z m36 -98 c-9 -34 -32 -49 -32
-20 0 10 5 36 11 58 11 37 12 39 20 17 5 -13 5 -38 1 -55z"/>
</g>
</svg>
